<svg width="191" height="21" viewBox="0 0 191 21" fill="none" xmlns="http://www.w3.org/2000/svg">
<path d="M0.531972 6.8602C0.401305 6.65487 0.279972 6.37487 0.167972 6.0202C0.0559717 5.66554 -2.82899e-05 5.2922 -2.82899e-05 4.9002C-2.82899e-05 4.1722 0.158638 3.64954 0.475972 3.3322C0.811972 3.01487 1.24131 2.8562 1.76397 2.8562H13.972C14.1026 3.06154 14.224 3.34154 14.336 3.6962C14.448 4.05087 14.504 4.4242 14.504 4.8162C14.504 5.5442 14.336 6.06687 14 6.3842C13.6826 6.70154 13.2626 6.8602 12.74 6.8602H9.63197V19.7962C9.42664 19.8522 9.09997 19.9082 8.65197 19.9642C8.22264 20.0202 7.79331 20.0482 7.36397 20.0482C6.93464 20.0482 6.55197 20.0109 6.21597 19.9362C5.89864 19.8802 5.62797 19.7682 5.40397 19.6002C5.17997 19.4322 5.01197 19.1989 4.89997 18.9002C4.78797 18.6015 4.73197 18.2095 4.73197 17.7242V6.8602H0.531972ZM15.7996 6.4962C15.9863 6.4402 16.2756 6.3842 16.6676 6.3282C17.0783 6.2722 17.4983 6.2442 17.9276 6.2442C18.3383 6.2442 18.7023 6.2722 19.0196 6.3282C19.3556 6.3842 19.6356 6.4962 19.8596 6.6642C20.0836 6.8322 20.2516 7.06554 20.3636 7.3642C20.4943 7.6442 20.5596 8.01754 20.5596 8.4842V14.5042C20.5596 15.2695 20.7463 15.8202 21.1196 16.1562C21.493 16.4735 22.0343 16.6322 22.7436 16.6322C23.173 16.6322 23.5183 16.5949 23.7796 16.5202C24.0596 16.4455 24.2743 16.3709 24.4236 16.2962V6.4962C24.6103 6.4402 24.8996 6.3842 25.2916 6.3282C25.7023 6.2722 26.1223 6.2442 26.5516 6.2442C26.9623 6.2442 27.3263 6.2722 27.6436 6.3282C27.9796 6.3842 28.2596 6.4962 28.4836 6.6642C28.7076 6.8322 28.8756 7.06554 28.9876 7.3642C29.1183 7.6442 29.1836 8.01754 29.1836 8.4842V16.9962C29.1836 17.9295 28.7916 18.6295 28.0076 19.0962C27.3543 19.5069 26.5703 19.8149 25.6556 20.0202C24.7596 20.2442 23.7796 20.3562 22.7156 20.3562C21.7076 20.3562 20.7743 20.2442 19.9156 20.0202C19.0756 19.7962 18.3476 19.4509 17.7316 18.9842C17.1156 18.5175 16.6396 17.9202 16.3036 17.1922C15.9676 16.4455 15.7996 15.5495 15.7996 14.5042V6.4962ZM36.8565 15.2322C36.8565 15.7175 37.0058 16.0629 37.3045 16.2682C37.6218 16.4735 38.0605 16.5762 38.6205 16.5762C38.9005 16.5762 39.1898 16.5575 39.4885 16.5202C39.7872 16.4642 40.0485 16.3989 40.2725 16.3242C40.4405 16.5295 40.5805 16.7629 40.6925 17.0242C40.8232 17.2669 40.8885 17.5655 40.8885 17.9202C40.8885 18.6295 40.6178 19.2082 40.0765 19.6562C39.5538 20.1042 38.6205 20.3282 37.2765 20.3282C35.6338 20.3282 34.3645 19.9549 33.4685 19.2082C32.5912 18.4615 32.1525 17.2482 32.1525 15.5682V3.5842C32.3578 3.5282 32.6472 3.4722 33.0205 3.4162C33.4125 3.34154 33.8232 3.3042 34.2525 3.3042C35.0738 3.3042 35.7085 3.45354 36.1565 3.7522C36.6232 4.0322 36.8565 4.63887 36.8565 5.5722V7.3642H40.5245C40.6365 7.56954 40.7392 7.83087 40.8325 8.1482C40.9445 8.44687 41.0005 8.78287 41.0005 9.1562C41.0005 9.80954 40.8512 10.2855 40.5525 10.5842C40.2725 10.8642 39.8898 11.0042 39.4045 11.0042H36.8565V15.2322ZM57.2274 13.1042C57.2274 14.2615 57.05 15.2975 56.6954 16.2122C56.3407 17.1082 55.8367 17.8642 55.1834 18.4802C54.5487 19.0962 53.7834 19.5629 52.8874 19.8802C51.9914 20.1975 50.9927 20.3562 49.8914 20.3562C48.79 20.3562 47.7914 20.1882 46.8954 19.8522C45.9994 19.5162 45.2247 19.0402 44.5714 18.4242C43.9367 17.7895 43.442 17.0242 43.0874 16.1282C42.7327 15.2322 42.5554 14.2242 42.5554 13.1042C42.5554 12.0029 42.7327 11.0042 43.0874 10.1082C43.442 9.2122 43.9367 8.4562 44.5714 7.8402C45.2247 7.20554 45.9994 6.7202 46.8954 6.3842C47.7914 6.0482 48.79 5.8802 49.8914 5.8802C50.9927 5.8802 51.9914 6.05754 52.8874 6.4122C53.7834 6.7482 54.5487 7.23354 55.1834 7.8682C55.8367 8.4842 56.3407 9.2402 56.6954 10.1362C57.05 11.0322 57.2274 12.0215 57.2274 13.1042ZM47.4274 13.1042C47.4274 14.2429 47.642 15.1202 48.0714 15.7362C48.5194 16.3335 49.1354 16.6322 49.9194 16.6322C50.7034 16.6322 51.3007 16.3242 51.7114 15.7082C52.1407 15.0922 52.3554 14.2242 52.3554 13.1042C52.3554 11.9842 52.1407 11.1255 51.7114 10.5282C51.282 9.9122 50.6754 9.6042 49.8914 9.6042C49.1074 9.6042 48.5007 9.9122 48.0714 10.5282C47.642 11.1255 47.4274 11.9842 47.4274 13.1042ZM64.3096 19.8802C64.123 19.9362 63.8243 19.9922 63.4136 20.0482C63.0216 20.1042 62.611 20.1322 62.1816 20.1322C61.771 20.1322 61.3976 20.1042 61.0616 20.0482C60.7443 19.9922 60.4736 19.8802 60.2496 19.7122C60.0256 19.5442 59.8483 19.3202 59.7176 19.0402C59.6056 18.7415 59.5496 18.3589 59.5496 17.8922V9.4922C59.5496 9.06287 59.6243 8.69887 59.7736 8.4002C59.9416 8.08287 60.175 7.80287 60.4736 7.5602C60.7723 7.31754 61.1363 7.10287 61.5656 6.9162C62.0136 6.71087 62.4896 6.53354 62.9936 6.3842C63.4976 6.23487 64.0203 6.12287 64.5616 6.0482C65.103 5.95487 65.6443 5.9082 66.1856 5.9082C67.0816 5.9082 67.791 6.08554 68.3136 6.4402C68.8363 6.7762 69.0976 7.3362 69.0976 8.1202C69.0976 8.38154 69.0603 8.64287 68.9856 8.9042C68.911 9.14687 68.8176 9.37087 68.7056 9.5762C68.3136 9.5762 67.9123 9.59487 67.5016 9.6322C67.091 9.66954 66.6896 9.72554 66.2976 9.8002C65.9056 9.87487 65.5323 9.95887 65.1776 10.0522C64.8416 10.1269 64.5523 10.2202 64.3096 10.3322V19.8802ZM70.9493 2.5202C70.9493 1.81087 71.1827 1.21354 71.6493 0.728201C72.1347 0.242869 72.7693 0.000202417 73.5533 0.000202417C74.3373 0.000202417 74.9627 0.242869 75.4293 0.728201C75.9147 1.21354 76.1573 1.81087 76.1573 2.5202C76.1573 3.22954 75.9147 3.82687 75.4293 4.3122C74.9627 4.79754 74.3373 5.0402 73.5533 5.0402C72.7693 5.0402 72.1347 4.79754 71.6493 4.3122C71.1827 3.82687 70.9493 3.22954 70.9493 2.5202ZM75.9333 19.8802C75.728 19.9175 75.42 19.9642 75.0093 20.0202C74.6173 20.0949 74.216 20.1322 73.8053 20.1322C73.3947 20.1322 73.0213 20.1042 72.6853 20.0482C72.368 19.9922 72.0973 19.8802 71.8733 19.7122C71.6493 19.5442 71.472 19.3202 71.3413 19.0402C71.2293 18.7415 71.1733 18.3589 71.1733 17.8922V6.4962C71.3787 6.45887 71.6773 6.4122 72.0693 6.3562C72.48 6.28154 72.8907 6.2442 73.3013 6.2442C73.712 6.2442 74.076 6.2722 74.3933 6.3282C74.7293 6.3842 75.0093 6.4962 75.2333 6.6642C75.4573 6.8322 75.6253 7.06554 75.7373 7.3642C75.868 7.6442 75.9333 8.01754 75.9333 8.4842V19.8802ZM84.7877 16.8842C85.105 16.8842 85.4504 16.8562 85.8237 16.8002C86.2157 16.7255 86.505 16.6322 86.6917 16.5202V14.2802L84.6757 14.4482C84.153 14.4855 83.7237 14.5975 83.3877 14.7842C83.0517 14.9709 82.8837 15.2509 82.8837 15.6242C82.8837 15.9975 83.0237 16.3055 83.3037 16.5482C83.6024 16.7722 84.097 16.8842 84.7877 16.8842ZM84.5637 5.8802C85.5717 5.8802 86.4864 5.98287 87.3077 6.1882C88.1477 6.39354 88.857 6.71087 89.4357 7.1402C90.033 7.55087 90.4904 8.08287 90.8077 8.7362C91.125 9.37087 91.2837 10.1269 91.2837 11.0042V17.2762C91.2837 17.7615 91.1437 18.1629 90.8637 18.4802C90.6024 18.7789 90.285 19.0402 89.9117 19.2642C88.6984 19.9922 86.9904 20.3562 84.7877 20.3562C83.7984 20.3562 82.9024 20.2629 82.0997 20.0762C81.3157 19.8895 80.6344 19.6095 80.0557 19.2362C79.4957 18.8629 79.057 18.3869 78.7397 17.8082C78.441 17.2295 78.2917 16.5575 78.2917 15.7922C78.2917 14.5042 78.6744 13.5149 79.4397 12.8242C80.205 12.1335 81.3904 11.7042 82.9957 11.5362L86.6637 11.1442V10.9482C86.6637 10.4069 86.421 10.0242 85.9357 9.8002C85.469 9.55754 84.7877 9.4362 83.8917 9.4362C83.1824 9.4362 82.4917 9.51087 81.8197 9.6602C81.1477 9.80954 80.541 9.9962 79.9997 10.2202C79.757 10.0522 79.5517 9.8002 79.3837 9.4642C79.2157 9.10954 79.1317 8.74554 79.1317 8.3722C79.1317 7.88687 79.2437 7.5042 79.4677 7.2242C79.7104 6.92554 80.0744 6.67354 80.5597 6.4682C81.101 6.26287 81.7357 6.11354 82.4637 6.0202C83.2104 5.92687 83.9104 5.8802 84.5637 5.8802ZM99.0382 19.8802C98.8328 19.9175 98.5248 19.9642 98.1142 20.0202C97.7222 20.0949 97.3208 20.1322 96.9102 20.1322C96.4995 20.1322 96.1262 20.1042 95.7902 20.0482C95.4728 19.9922 95.2022 19.8802 94.9782 19.7122C94.7542 19.5442 94.5768 19.3202 94.4462 19.0402C94.3342 18.7415 94.2782 18.3589 94.2782 17.8922V1.6522C94.4835 1.61487 94.7822 1.5682 95.1742 1.5122C95.5848 1.43754 95.9955 1.4002 96.4062 1.4002C96.8168 1.4002 97.1808 1.4282 97.4982 1.4842C97.8342 1.5402 98.1142 1.6522 98.3382 1.8202C98.5622 1.9882 98.7302 2.22154 98.8422 2.5202C98.9728 2.8002 99.0382 3.17354 99.0382 3.6402V19.8802ZM113.522 15.8482C113.522 17.2669 112.99 18.3775 111.926 19.1802C110.862 19.9829 109.294 20.3842 107.222 20.3842C106.438 20.3842 105.71 20.3282 105.038 20.2162C104.366 20.1042 103.787 19.9362 103.302 19.7122C102.835 19.4695 102.462 19.1709 102.182 18.8162C101.92 18.4615 101.79 18.0415 101.79 17.5562C101.79 17.1082 101.883 16.7349 102.07 16.4362C102.256 16.1189 102.48 15.8575 102.742 15.6522C103.283 15.9509 103.899 16.2215 104.59 16.4642C105.299 16.6882 106.111 16.8002 107.026 16.8002C107.604 16.8002 108.043 16.7162 108.342 16.5482C108.659 16.3802 108.818 16.1562 108.818 15.8762C108.818 15.6149 108.706 15.4095 108.482 15.2602C108.258 15.1109 107.884 14.9895 107.362 14.8962L106.522 14.7282C104.898 14.4109 103.684 13.9162 102.882 13.2442C102.098 12.5535 101.706 11.5735 101.706 10.3042C101.706 9.61354 101.855 8.9882 102.154 8.4282C102.452 7.8682 102.872 7.40154 103.414 7.0282C103.955 6.65487 104.599 6.36554 105.346 6.1602C106.111 5.95487 106.951 5.8522 107.866 5.8522C108.556 5.8522 109.2 5.9082 109.798 6.0202C110.414 6.11354 110.946 6.26287 111.394 6.4682C111.842 6.67354 112.196 6.9442 112.458 7.2802C112.719 7.59754 112.85 7.9802 112.85 8.4282C112.85 8.85754 112.766 9.23087 112.598 9.5482C112.448 9.84687 112.252 10.0989 112.01 10.3042C111.86 10.2109 111.636 10.1175 111.338 10.0242C111.039 9.9122 110.712 9.81887 110.358 9.7442C110.003 9.65087 109.639 9.5762 109.266 9.5202C108.911 9.4642 108.584 9.4362 108.286 9.4362C107.67 9.4362 107.194 9.51087 106.858 9.6602C106.522 9.79087 106.354 10.0055 106.354 10.3042C106.354 10.5095 106.447 10.6775 106.634 10.8082C106.82 10.9389 107.175 11.0602 107.698 11.1722L108.566 11.3682C110.358 11.7789 111.627 12.3482 112.374 13.0762C113.139 13.7855 113.522 14.7095 113.522 15.8482ZM133.721 2.9402C133.851 3.14554 133.963 3.42554 134.057 3.7802C134.169 4.1162 134.225 4.47087 134.225 4.8442C134.225 5.5722 134.066 6.09487 133.749 6.4122C133.45 6.71087 133.039 6.8602 132.517 6.8602H126.637V10.0242H132.769C132.918 10.2295 133.039 10.5002 133.133 10.8362C133.245 11.1722 133.301 11.5269 133.301 11.9002C133.301 12.6095 133.142 13.1229 132.825 13.4402C132.526 13.7389 132.115 13.8882 131.593 13.8882H126.693V19.7962C126.487 19.8522 126.161 19.9082 125.713 19.9642C125.283 20.0202 124.854 20.0482 124.425 20.0482C123.995 20.0482 123.613 20.0109 123.277 19.9362C122.959 19.8802 122.689 19.7682 122.465 19.6002C122.241 19.4322 122.073 19.1989 121.961 18.9002C121.849 18.6015 121.793 18.2095 121.793 17.7242V5.5442C121.793 4.74154 122.026 4.10687 122.493 3.6402C122.959 3.17354 123.594 2.9402 124.397 2.9402H133.721ZM140.517 19.8802C140.33 19.9362 140.031 19.9922 139.621 20.0482C139.229 20.1042 138.818 20.1322 138.389 20.1322C137.978 20.1322 137.605 20.1042 137.269 20.0482C136.951 19.9922 136.681 19.8802 136.457 19.7122C136.233 19.5442 136.055 19.3202 135.925 19.0402C135.813 18.7415 135.757 18.3589 135.757 17.8922V9.4922C135.757 9.06287 135.831 8.69887 135.981 8.4002C136.149 8.08287 136.382 7.80287 136.681 7.5602C136.979 7.31754 137.343 7.10287 137.773 6.9162C138.221 6.71087 138.697 6.53354 139.201 6.3842C139.705 6.23487 140.227 6.12287 140.769 6.0482C141.31 5.95487 141.851 5.9082 142.393 5.9082C143.289 5.9082 143.998 6.08554 144.521 6.4402C145.043 6.7762 145.305 7.3362 145.305 8.1202C145.305 8.38154 145.267 8.64287 145.193 8.9042C145.118 9.14687 145.025 9.37087 144.913 9.5762C144.521 9.5762 144.119 9.59487 143.709 9.6322C143.298 9.66954 142.897 9.72554 142.505 9.8002C142.113 9.87487 141.739 9.95887 141.385 10.0522C141.049 10.1269 140.759 10.2202 140.517 10.3322V19.8802ZM153.945 20.3562C152.844 20.3562 151.817 20.2069 150.865 19.9082C149.932 19.5909 149.11 19.1242 148.401 18.5082C147.71 17.8922 147.16 17.1175 146.749 16.1842C146.357 15.2509 146.161 14.1589 146.161 12.9082C146.161 11.6762 146.357 10.6215 146.749 9.7442C147.16 8.8482 147.692 8.1202 148.345 7.5602C148.998 6.98154 149.745 6.56154 150.585 6.3002C151.425 6.0202 152.284 5.8802 153.161 5.8802C154.15 5.8802 155.046 6.02954 155.849 6.3282C156.67 6.62687 157.37 7.03754 157.949 7.5602C158.546 8.08287 159.004 8.7082 159.321 9.4362C159.657 10.1642 159.825 10.9575 159.825 11.8162C159.825 12.4509 159.648 12.9362 159.293 13.2722C158.938 13.6082 158.444 13.8229 157.809 13.9162L150.893 14.9522C151.098 15.5682 151.518 16.0349 152.153 16.3522C152.788 16.6509 153.516 16.8002 154.337 16.8002C155.102 16.8002 155.821 16.7069 156.493 16.5202C157.184 16.3149 157.744 16.0815 158.173 15.8202C158.472 16.0069 158.724 16.2682 158.929 16.6042C159.134 16.9402 159.237 17.2949 159.237 17.6682C159.237 18.5082 158.845 19.1335 158.061 19.5442C157.464 19.8615 156.792 20.0762 156.045 20.1882C155.298 20.3002 154.598 20.3562 153.945 20.3562ZM153.161 9.3522C152.713 9.3522 152.321 9.42687 151.985 9.5762C151.668 9.72554 151.406 9.92154 151.201 10.1642C150.996 10.3882 150.837 10.6495 150.725 10.9482C150.632 11.2282 150.576 11.5175 150.557 11.8162L155.345 11.0322C155.289 10.6589 155.084 10.2855 154.729 9.9122C154.374 9.53887 153.852 9.3522 153.161 9.3522ZM167.94 16.8842C168.257 16.8842 168.603 16.8562 168.976 16.8002C169.368 16.7255 169.657 16.6322 169.844 16.5202V14.2802L167.828 14.4482C167.305 14.4855 166.876 14.5975 166.54 14.7842C166.204 14.9709 166.036 15.2509 166.036 15.6242C166.036 15.9975 166.176 16.3055 166.456 16.5482C166.755 16.7722 167.249 16.8842 167.94 16.8842ZM167.716 5.8802C168.724 5.8802 169.639 5.98287 170.46 6.1882C171.3 6.39354 172.009 6.71087 172.588 7.1402C173.185 7.55087 173.643 8.08287 173.96 8.7362C174.277 9.37087 174.436 10.1269 174.436 11.0042V17.2762C174.436 17.7615 174.296 18.1629 174.016 18.4802C173.755 18.7789 173.437 19.0402 173.064 19.2642C171.851 19.9922 170.143 20.3562 167.94 20.3562C166.951 20.3562 166.055 20.2629 165.252 20.0762C164.468 19.8895 163.787 19.6095 163.208 19.2362C162.648 18.8629 162.209 18.3869 161.892 17.8082C161.593 17.2295 161.444 16.5575 161.444 15.7922C161.444 14.5042 161.827 13.5149 162.592 12.8242C163.357 12.1335 164.543 11.7042 166.148 11.5362L169.816 11.1442V10.9482C169.816 10.4069 169.573 10.0242 169.088 9.8002C168.621 9.55754 167.94 9.4362 167.044 9.4362C166.335 9.4362 165.644 9.51087 164.972 9.6602C164.3 9.80954 163.693 9.9962 163.152 10.2202C162.909 10.0522 162.704 9.8002 162.536 9.4642C162.368 9.10954 162.284 8.74554 162.284 8.3722C162.284 7.88687 162.396 7.5042 162.62 7.2242C162.863 6.92554 163.227 6.67354 163.712 6.4682C164.253 6.26287 164.888 6.11354 165.616 6.0202C166.363 5.92687 167.063 5.8802 167.716 5.8802ZM190.647 17.4442C190.553 18.3215 190.292 18.9935 189.863 19.4602C189.452 19.9269 188.845 20.1602 188.043 20.1602C187.445 20.1602 186.913 20.0202 186.447 19.7402C185.98 19.4415 185.476 18.9469 184.935 18.2562L182.163 14.7842V19.8802C181.957 19.9175 181.649 19.9642 181.239 20.0202C180.847 20.0949 180.445 20.1322 180.035 20.1322C179.624 20.1322 179.251 20.1042 178.915 20.0482C178.597 19.9922 178.327 19.8802 178.103 19.7122C177.879 19.5442 177.701 19.3202 177.571 19.0402C177.459 18.7415 177.403 18.3589 177.403 17.8922V1.6802C177.608 1.6242 177.907 1.5682 178.299 1.5122C178.709 1.43754 179.12 1.4002 179.531 1.4002C179.941 1.4002 180.305 1.4282 180.623 1.4842C180.959 1.5402 181.239 1.6522 181.463 1.8202C181.687 1.9882 181.855 2.22154 181.967 2.5202C182.097 2.8002 182.163 3.17354 182.163 3.6402V11.0322L186.979 6.1042C187.949 6.1042 188.724 6.31887 189.303 6.7482C189.9 7.17754 190.199 7.71887 190.199 8.3722C190.199 8.6522 190.152 8.91354 190.059 9.1562C189.965 9.3802 189.816 9.61354 189.611 9.8562C189.424 10.0989 189.172 10.3602 188.855 10.6402C188.556 10.9015 188.201 11.2095 187.791 11.5642L186.167 12.9642L190.647 17.4442Z" fill="#363049"/>
</svg>
